<mxfile host="app.diagrams.net" modified="2022-11-02T09:04:54.203Z" agent="5.0 (Windows NT 10.0; Win64; x64) AppleWebKit/537.36 (KHTML, like Gecko) Chrome/107.0.0.0 Safari/537.36 Edg/107.0.1418.26" etag="zv-CsdIfVxovei6baAKE" version="20.5.1" type="github">
  <diagram id="prtHgNgQTEPvFCAcTncT" name="Page-1">
    <mxGraphModel dx="691" dy="381" grid="1" gridSize="10" guides="1" tooltips="1" connect="1" arrows="1" fold="1" page="1" pageScale="1" pageWidth="827" pageHeight="1169" math="0" shadow="0">
      <root>
        <mxCell id="0" />
        <mxCell id="1" parent="0" />
        <mxCell id="kCenjyc4mZGZtP7FC3ml-1" value="3D Tiles" style="rounded=0;whiteSpace=wrap;html=1;" vertex="1" parent="1">
          <mxGeometry x="240" y="280" width="70" height="30" as="geometry" />
        </mxCell>
        <mxCell id="kCenjyc4mZGZtP7FC3ml-3" value="Tiles" style="rounded=0;whiteSpace=wrap;html=1;" vertex="1" parent="1">
          <mxGeometry x="160" y="280" width="70" height="30" as="geometry" />
        </mxCell>
        <mxCell id="kCenjyc4mZGZtP7FC3ml-4" value="Vectors" style="rounded=0;whiteSpace=wrap;html=1;" vertex="1" parent="1">
          <mxGeometry x="320" y="280" width="70" height="30" as="geometry" />
        </mxCell>
        <mxCell id="kCenjyc4mZGZtP7FC3ml-5" value="Volume" style="rounded=0;whiteSpace=wrap;html=1;" vertex="1" parent="1">
          <mxGeometry x="400" y="280" width="70" height="30" as="geometry" />
        </mxCell>
        <mxCell id="kCenjyc4mZGZtP7FC3ml-6" value="Models" style="rounded=0;whiteSpace=wrap;html=1;" vertex="1" parent="1">
          <mxGeometry x="480" y="280" width="70" height="30" as="geometry" />
        </mxCell>
        <mxCell id="kCenjyc4mZGZtP7FC3ml-7" value="Files" style="rounded=0;whiteSpace=wrap;html=1;" vertex="1" parent="1">
          <mxGeometry x="560" y="280" width="70" height="30" as="geometry" />
        </mxCell>
        <mxCell id="kCenjyc4mZGZtP7FC3ml-8" value="Registe" style="rounded=0;whiteSpace=wrap;html=1;" vertex="1" parent="1">
          <mxGeometry x="210" y="210" width="70" height="30" as="geometry" />
        </mxCell>
        <mxCell id="kCenjyc4mZGZtP7FC3ml-10" value="Serve" style="rounded=0;whiteSpace=wrap;html=1;" vertex="1" parent="1">
          <mxGeometry x="300" y="210" width="70" height="30" as="geometry" />
        </mxCell>
        <mxCell id="kCenjyc4mZGZtP7FC3ml-11" value="Interpolate" style="rounded=0;whiteSpace=wrap;html=1;" vertex="1" parent="1">
          <mxGeometry x="390" y="210" width="70" height="30" as="geometry" />
        </mxCell>
        <mxCell id="kCenjyc4mZGZtP7FC3ml-12" value="Transform" style="rounded=0;whiteSpace=wrap;html=1;" vertex="1" parent="1">
          <mxGeometry x="480" y="210" width="70" height="30" as="geometry" />
        </mxCell>
        <mxCell id="kCenjyc4mZGZtP7FC3ml-13" value="Globe" style="rounded=0;whiteSpace=wrap;html=1;" vertex="1" parent="1">
          <mxGeometry x="140" y="140" width="70" height="30" as="geometry" />
        </mxCell>
        <mxCell id="kCenjyc4mZGZtP7FC3ml-14" value="Raster layer" style="rounded=0;whiteSpace=wrap;html=1;" vertex="1" parent="1">
          <mxGeometry x="230" y="140" width="70" height="30" as="geometry" />
        </mxCell>
        <mxCell id="kCenjyc4mZGZtP7FC3ml-15" value="Vector data" style="rounded=0;whiteSpace=wrap;html=1;" vertex="1" parent="1">
          <mxGeometry x="320" y="140" width="70" height="30" as="geometry" />
        </mxCell>
        <mxCell id="kCenjyc4mZGZtP7FC3ml-16" value="Models" style="rounded=0;whiteSpace=wrap;html=1;" vertex="1" parent="1">
          <mxGeometry x="410" y="140" width="70" height="30" as="geometry" />
        </mxCell>
        <mxCell id="kCenjyc4mZGZtP7FC3ml-18" value="Terrain analysis" style="rounded=0;whiteSpace=wrap;html=1;" vertex="1" parent="1">
          <mxGeometry x="310" y="70" width="70" height="30" as="geometry" />
        </mxCell>
        <mxCell id="kCenjyc4mZGZtP7FC3ml-19" value="Measurement" style="rounded=0;whiteSpace=wrap;html=1;" vertex="1" parent="1">
          <mxGeometry x="220" y="70" width="80" height="30" as="geometry" />
        </mxCell>
        <mxCell id="kCenjyc4mZGZtP7FC3ml-20" value="Visiblility analysis" style="rounded=0;whiteSpace=wrap;html=1;" vertex="1" parent="1">
          <mxGeometry x="389" y="70" width="70" height="30" as="geometry" />
        </mxCell>
        <mxCell id="kCenjyc4mZGZtP7FC3ml-21" value="Models" style="rounded=0;whiteSpace=wrap;html=1;" vertex="1" parent="1">
          <mxGeometry x="470" y="70" width="70" height="30" as="geometry" />
        </mxCell>
        <mxCell id="kCenjyc4mZGZtP7FC3ml-22" value="Field" style="rounded=0;whiteSpace=wrap;html=1;" vertex="1" parent="1">
          <mxGeometry x="490" y="140" width="70" height="30" as="geometry" />
        </mxCell>
        <mxCell id="kCenjyc4mZGZtP7FC3ml-23" value="Volume" style="rounded=0;whiteSpace=wrap;html=1;" vertex="1" parent="1">
          <mxGeometry x="570" y="140" width="70" height="30" as="geometry" />
        </mxCell>
      </root>
    </mxGraphModel>
  </diagram>
</mxfile>
